<svg width="120" height="80" xmlns="http://www.w3.org/2000/svg" version="1.2" baseProfile="tiny-ps">
 <g id="Layer_1">
  <title>Layer 1</title>
  <g stroke="null">
   <title stroke="null">11-svg</title>

   <g stroke="null" id="Layer">
    <path stroke="null" fill="url(#svg_2)" d="m73.76024,25.86885c0,-1.7894 1.44964,-3.23337 3.23337,-3.23337c1.7894,0 3.23337,1.44964 3.23337,3.23337c0,1.7894 -1.44964,3.23337 -3.23337,3.23337c-1.78374,0 -3.23337,-1.44964 -3.23337,-3.23337zm3.54482,30.93506c-1.78374,0 -3.23337,-1.44398 -3.23337,-3.23337c0,-1.78374 1.44398,-3.23337 3.23337,-3.23337c1.78374,0 3.23337,1.44398 3.23337,3.23337c0,1.7894 -1.44964,3.23904 -3.23337,3.23337zm-33.67578,0.99096c-1.84036,0 -3.3353,-1.49494 -3.3353,-3.3353c0,-1.84036 1.49494,-3.3353 3.3353,-3.3353c1.84036,0 3.3353,1.49494 3.3353,3.3353c0,1.84602 -1.49494,3.3353 -3.3353,3.3353zm-11.93121,2.57651c0,1.62518 -1.31374,2.93892 -2.93892,2.93892c-1.62518,0 -2.93892,-1.31374 -2.93892,-2.93892c0,-1.62518 1.31374,-2.93892 2.93892,-2.93892c1.62518,0 2.93892,1.31374 2.93892,2.93892zm-15.45337,-2.6841c-1.52325,0 -2.75771,-1.23446 -2.75771,-2.75771c0,-1.52325 1.23446,-2.75771 2.75771,-2.75771c1.52325,0 2.75771,1.23446 2.75771,2.75771c0,1.52325 -1.23446,2.75771 -2.75771,2.75771zm-3.30133,-12.80325c0,1.4553 -1.17783,2.63313 -2.63313,2.63313c-1.4553,0 -2.63313,-1.17783 -2.63313,-2.63313c0,-1.4553 1.17783,-2.63313 2.63313,-2.63313c1.44964,0 2.63313,1.17783 2.63313,2.63313zm-0.00566,-9.59253c0,1.35337 -1.09855,2.45193 -2.45193,2.45193c-1.35337,0 -2.45193,-1.09855 -2.45193,-2.45193c0,-1.35337 1.09855,-2.45193 2.45193,-2.45193c1.35904,0 2.45759,1.09855 2.45193,2.45193zm0.0906,-7.40675c0,-1.18916 0.96265,-2.15747 2.15747,-2.15747c1.18916,0 2.15747,0.96265 2.15747,2.15747c0,1.18916 -0.96265,2.15747 -2.15747,2.15747c-1.19482,0 -2.15747,-0.96831 -2.15747,-2.15747zm80.30772,33.10952c0,1.59687 -1.29675,2.89361 -2.89361,2.89361c-1.59687,0 -2.89361,-1.29675 -2.89361,-2.89361c0,-1.59687 1.29675,-2.89361 2.89361,-2.89361c1.59687,0 2.89361,1.29675 2.89361,2.89361zm-5.19265,-41.20145c0,-1.56855 1.26843,-2.83699 2.83699,-2.83699c1.56855,0 2.83699,1.26843 2.83699,2.83699c0,1.56855 -1.26843,2.83699 -2.83699,2.83699c-1.56855,0 -2.83699,-1.26843 -2.83699,-2.83699zm15.57229,2.83699c1.57422,0 2.85398,1.27976 2.85398,2.85398c0,1.57422 -1.27976,2.85398 -2.85398,2.85398c-1.57422,0 -2.85398,-1.27976 -2.85398,-2.85398c0,-1.57422 1.2741,-2.85398 2.85398,-2.85398zm8.0806,2.51422c1.90831,0 3.45988,1.5459 3.45988,3.45988c0,1.90831 -1.5459,3.45988 -3.45988,3.45988c-1.90831,0 -3.45988,-1.5459 -3.45988,-3.45988c0,-1.90831 1.5459,-3.45988 3.45988,-3.45988zm-4.8359,10.46458c0,-1.38735 1.1212,-2.50855 2.50855,-2.50855c1.38735,0 2.50855,1.1212 2.50855,2.50855c0,1.38735 -1.1212,2.50855 -2.50855,2.50855c-1.38735,0 -2.50855,-1.1212 -2.50855,-2.50855zm11.78964,4.90952c0,1.86867 -1.51759,3.38627 -3.38627,3.38627c-1.86867,0 -3.38627,-1.51759 -3.38627,-3.38627c0,-1.86867 1.51759,-3.38627 3.38627,-3.38627c1.87434,0 3.38627,1.51759 3.38627,3.38627zm-11.91988,4.0488c0,-1.20614 0.97964,-2.18578 2.18578,-2.18578c1.20614,0 2.18578,0.97964 2.18578,2.18578c0,1.20614 -0.97964,2.18578 -2.18578,2.18578c-1.21181,0 -2.19145,-0.97964 -2.18578,-2.18578zm4.68301,9.22446c-1.75542,0 -3.18241,-1.42699 -3.18241,-3.18241c0,-1.75542 1.42699,-3.18241 3.18241,-3.18241c1.75542,0 3.18241,1.42699 3.18241,3.18241c0,1.75542 -1.42133,3.18241 -3.18241,3.18241zm-6.41578,-0.65687c-1.08157,0 -1.96494,-0.87771 -1.96494,-1.96494c0,-1.08157 0.88337,-1.96494 1.96494,-1.96494c1.08157,0 1.96494,0.87771 1.96494,1.96494c0,1.08723 -0.88337,1.96494 -1.96494,1.96494zm0.30578,2.67843c0,1.32506 -1.0759,2.3953 -2.3953,2.3953c-1.32506,0 -2.3953,-1.0759 -2.3953,-2.3953c0,-1.32506 1.0759,-2.3953 2.3953,-2.3953c1.32506,0 2.3953,1.07024 2.3953,2.3953zm-6.60265,1.62518c-0.61723,0 -1.1212,-0.50398 -1.1212,-1.1212c0,-0.61723 0.50398,-1.1212 1.1212,-1.1212c0.61723,0 1.1212,0.50398 1.1212,1.1212c0,0.62289 -0.49831,1.1212 -1.1212,1.1212zm-3.97518,0.39639c0,-0.60024 0.48699,-1.08723 1.08723,-1.08723c0.60024,0 1.08723,0.48699 1.08723,1.08723c0,0.60024 -0.48699,1.08723 -1.08723,1.08723c-0.59458,0 -1.08157,-0.48699 -1.08723,-1.08723zm-1.0306,0.50964c-0.33976,0 -0.61157,-0.27181 -0.61157,-0.61157c0,-0.33976 0.27181,-0.61157 0.61157,-0.61157c0.33976,0 0.61157,0.27181 0.61157,0.61157c0,0.3341 -0.27747,0.6059 -0.61157,0.61157zm-33.89097,-12.2653c-3.21639,0 -5.82687,-2.61048 -5.82687,-5.82687c0,-3.21639 2.61048,-5.82687 5.82687,-5.82687c3.21639,0 5.82687,2.61048 5.82687,5.82687c0,3.21639 -2.61048,5.82687 -5.82687,5.82687zm26.02554,15.51566c0,2.52554 -2.04422,4.56976 -4.56976,4.56976c-2.52554,0 -4.56976,-2.04422 -4.56976,-4.56976c0,-2.52554 2.04422,-4.56976 4.56976,-4.56976c2.52554,0 4.56976,2.04988 4.56976,4.56976zm14.30952,3.4259c0,1.77807 -1.44964,3.21639 -3.23904,3.21639c-1.7894,0 -3.23904,-1.43831 -3.23904,-3.21639c0,-1.77807 1.44964,-3.21639 3.23904,-3.21639c1.7894,0 3.23904,1.44398 3.23904,3.21639zm1.7441,-2.62747c-0.97964,0 -1.77241,-0.77012 -1.77241,-1.72145c0,-0.95133 0.79277,-1.72145 1.77241,-1.72145c0.97964,0 1.77241,0.77012 1.77241,1.72145c0,0.95133 -0.79277,1.72145 -1.77241,1.72145zm6.48374,-1.39867c0,1.00795 -0.84373,1.82904 -1.88566,1.82904c-1.04193,0 -1.88566,-0.82108 -1.88566,-1.82904c0,-1.00795 0.84373,-1.82904 1.88566,-1.82904c1.04193,0 1.88566,0.82108 1.88566,1.82904zm-38.09265,-39.7688c0,-0.99663 0.83241,-1.80639 1.85735,-1.80639c1.02494,0 1.85735,0.80976 1.85735,1.80639c0,0.99663 -0.83241,1.80639 -1.85735,1.80639c-1.02494,0 -1.85735,-0.80976 -1.85735,-1.80639zm-27.29964,2.51422c1.78374,0 3.23337,1.44398 3.23337,3.23337c0,1.78374 -1.44398,3.23337 -3.23337,3.23337c-1.78374,0 -3.23337,-1.44398 -3.23337,-3.23337c0,-1.78374 1.44398,-3.23337 3.23337,-3.23337zm-11.24602,-0.40771c-1.71012,0 -3.09747,-1.38735 -3.09747,-3.09747c0,-1.71012 1.38735,-3.09747 3.09747,-3.09747c1.71012,0 3.09747,1.38735 3.09747,3.09747c0,1.71012 -1.38735,3.09747 -3.09747,3.09747zm13.92446,-0.95133c0,-1.18349 0.99096,-2.14048 2.20843,-2.14048c1.22313,0 2.20843,0.95699 2.20843,2.14048c0,1.18349 -0.99096,2.14048 -2.20843,2.14048c-1.21747,0 -2.20843,-0.95699 -2.20843,-2.14048zm-15.3741,-9.12253c0,-0.99096 0.83241,-1.80072 1.85735,-1.80072c1.02494,0 1.85735,0.8041 1.85735,1.80072c0,0.99096 -0.83241,1.80072 -1.85735,1.80072c-1.02494,0 -1.85735,-0.80976 -1.85735,-1.80072zm-12.51446,1.82337c0,-0.71349 0.59458,-1.29675 1.33639,-1.29675c0.73614,0 1.33639,0.58325 1.33639,1.29675c0,0.71349 -0.59458,1.29675 -1.33639,1.29675c-0.74181,0 -1.33639,-0.58325 -1.33639,-1.29675zm-8.19952,5.23229c0,-0.43602 0.36241,-0.79277 0.81542,-0.79277c0.44735,0 0.81542,0.35675 0.81542,0.79277c0,0.43602 -0.36241,0.79277 -0.81542,0.79277c-0.45301,0 -0.81542,-0.35675 -0.81542,-0.79277zm64.80904,37.78121c0,1.18349 -0.9853,2.14048 -2.20843,2.14048c-1.22313,0 -2.20843,-0.95699 -2.20843,-2.14048c0,-1.18349 0.99096,-2.14048 2.20843,-2.14048c1.21747,0 2.20277,0.96265 2.20843,2.14048zm-24.80807,1.1212c0,1.08157 -0.90036,1.95928 -2.0159,1.95928c-1.10988,0 -2.0159,-0.87771 -2.0159,-1.95928c0,-1.08157 0.90036,-1.95928 2.0159,-1.95928c1.11554,0 2.0159,0.87771 2.0159,1.95928zm-18.4659,7.76916c0,1.00229 -0.83241,1.81205 -1.86301,1.81205c-1.02494,0 -1.86301,-0.80976 -1.86301,-1.81205c0,-1.00229 0.83241,-1.81205 1.86301,-1.81205c1.0306,0 1.86867,0.80976 1.86301,1.81205zm-18.19976,-7.15759c0,0.91735 -0.77012,1.66482 -1.71578,1.66482c-0.94566,0 -1.71578,-0.74747 -1.71578,-1.66482c0,-0.91735 0.77012,-1.66482 1.71578,-1.66482c0.94566,0 1.71012,0.74747 1.71578,1.66482zm-8.06928,-13.22795c0,0.83241 -0.69084,1.50627 -1.5459,1.50627c-0.85506,0 -1.5459,-0.67386 -1.5459,-1.50627c0,-0.83241 0.69084,-1.50627 1.5459,-1.50627c0.85506,0 1.5459,0.67386 1.5459,1.50627zm-2.69542,-12.87121c0,-0.72482 0.6059,-1.31374 1.34771,-1.31374c0.74181,0 1.34771,0.58892 1.34771,1.31374c0,0.72482 -0.60024,1.31374 -1.34771,1.31374c-0.74747,0 -1.34771,-0.58892 -1.34771,-1.31374zm10.24374,-7.85976c-0.65687,0 -1.18349,-0.5153 -1.18349,-1.14952c0,-0.63422 0.52663,-1.14952 1.18349,-1.14952c0.65687,0 1.18349,0.5153 1.18349,1.14952c0,0.63422 -0.52663,1.14952 -1.18349,1.14952zm8.62988,-3.48819c-0.27747,0 -0.50398,-0.22084 -0.50398,-0.49265c0,-0.27181 0.22651,-0.49265 0.50398,-0.49265c0.27747,0 0.50398,0.22084 0.50398,0.49265c0,0.27181 -0.22651,0.49265 -0.50398,0.49265zm4.54711,-1.09289c0.15289,0 0.27747,0.12458 0.27747,0.27181c0,0.15289 -0.12458,0.27181 -0.27747,0.27181c-0.15289,0 -0.27747,-0.12458 -0.27747,-0.27181c0,-0.14723 0.12458,-0.27181 0.27747,-0.27181zm65.40362,46.1053c0,0.94 -0.78711,1.70446 -1.75542,1.70446c-0.96831,0 -1.75542,-0.76446 -1.75542,-1.70446c0,-0.94 0.78711,-1.70446 1.75542,-1.70446c0.96831,0 1.75542,0.76446 1.75542,1.70446zm13.19398,-2.92193c0,0.6059 -0.50398,1.09855 -1.12687,1.09855c-0.62289,0 -1.12687,-0.49265 -1.12687,-1.09855c0,-0.6059 0.50398,-1.09855 1.12687,-1.09855c0.62289,0 1.12687,0.49265 1.12687,1.09855zm6.35349,-4.77928c0,0.2888 -0.24349,0.52663 -0.54361,0.52663c-0.30012,0 -0.54361,-0.23783 -0.54361,-0.52663c0,-0.2888 0.24349,-0.52663 0.54361,-0.52663c0.29446,0 0.53795,0.23783 0.54361,0.52663zm2.85964,-3.37494c0,0.22084 -0.18687,0.40205 -0.41337,0.40205c-0.22651,0 -0.41337,-0.1812 -0.41337,-0.40205c0,-0.22084 0.18687,-0.40205 0.41337,-0.40205c0.22651,0 0.41337,0.1812 0.41337,0.40205zm1.63084,-2.49157c0,0.14157 -0.11892,0.25482 -0.26048,0.25482c-0.14157,0 -0.26048,-0.11325 -0.26048,-0.25482c0,-0.14157 0.11325,-0.25482 0.26048,-0.25482c0.14723,0 0.26614,0.11325 0.26048,0.25482zm-25.99157,-41.10518c0,-1.00229 0.83807,-1.81771 1.87434,-1.81771c1.03627,0 1.87434,0.81542 1.87434,1.81771c0,1.00229 -0.83807,1.81771 -1.87434,1.81771c-1.0306,0 -1.87434,-0.81542 -1.87434,-1.81771zm18.40362,7.82012c0,-0.93434 0.78145,-1.6988 1.74976,-1.6988c0.96265,0 1.74976,0.7588 1.74976,1.6988c0,0.93434 -0.78145,1.6988 -1.74976,1.6988c-0.96831,0 -1.74976,-0.7588 -1.74976,-1.6988zm7.67289,12.9788c0,-0.79843 0.66819,-1.44964 1.49494,-1.44964c0.82675,0 1.49494,0.6512 1.49494,1.44964c0,0.79843 -0.66819,1.44964 -1.49494,1.44964c-0.82675,0 -1.49494,-0.6512 -1.49494,-1.44964zm2.50289,13.23362c0,0.79843 -0.66819,1.44964 -1.49494,1.44964c-0.82675,0 -1.49494,-0.6512 -1.49494,-1.44964c0,-0.79843 0.66819,-1.44964 1.49494,-1.44964c0.82108,0 1.49494,0.64554 1.49494,1.44964zm-9.2188,7.43506c0.67952,0 1.23446,0.53795 1.23446,1.20048c0,0.66253 -0.55494,1.20048 -1.23446,1.20048c-0.67952,0 -1.23446,-0.53795 -1.23446,-1.20048c0,-0.66253 0.55494,-1.20048 1.23446,-1.20048zm-9.76241,4.19602c0,-0.35675 0.30012,-0.6512 0.67386,-0.6512c0.37373,0 0.67386,0.2888 0.67386,0.6512c0,0.35675 -0.30012,0.6512 -0.67386,0.6512c-0.37373,0 -0.67386,-0.2888 -0.67386,-0.6512zm10.81566,-0.69084c0,0.45301 -0.38506,0.82675 -0.85506,0.82675c-0.47,0 -0.85506,-0.36807 -0.85506,-0.82675c0,-0.45301 0.38506,-0.82675 0.85506,-0.82675c0.47,0 0.85506,0.37373 0.85506,0.82675zm2.90494,-0.06795c0,0.49265 -0.40771,0.88904 -0.91169,0.88904c-0.50398,0 -0.91169,-0.39639 -0.91169,-0.88904c0,-0.49265 0.40771,-0.88904 0.91169,-0.88904c0.50964,0 0.91735,0.39639 0.91169,0.88904zm1.93663,-2.74072c0,0.35108 -0.29446,0.63422 -0.65687,0.63422c-0.36241,0 -0.65687,-0.28313 -0.65687,-0.63422c0,-0.35108 0.29446,-0.63422 0.65687,-0.63422c0.36241,0 0.65687,0.28313 0.65687,0.63422zm1.34771,-2.33301c0,0.24349 -0.19819,0.43602 -0.44735,0.43602c-0.24916,0 -0.44735,-0.19819 -0.44735,-0.43602c0,-0.24349 0.19819,-0.43602 0.44735,-0.43602c0.24349,0 0.44169,0.19253 0.44735,0.43602zm-3.99217,2.33301c0.28313,0 0.5153,0.22651 0.5153,0.50398c0,0.27747 -0.22651,0.50398 -0.5153,0.50398c-0.28313,0 -0.5153,-0.22651 -0.5153,-0.50398c0,-0.27747 0.23217,-0.50398 0.5153,-0.50398zm2.94458,-1.61386c0,0.23783 -0.20386,0.43602 -0.45301,0.43602c-0.24916,0 -0.45301,-0.19253 -0.45301,-0.43602c0,-0.23783 0.20386,-0.43602 0.45301,-0.43602c0.24916,0 0.45301,0.19819 0.45301,0.43602zm-57.88928,-3.57313c0,2.62747 -2.12916,4.76229 -4.76229,4.76229c-2.62747,0 -4.76229,-2.12916 -4.76229,-4.76229c0,-2.62747 2.12916,-4.76229 4.76229,-4.76229c2.62747,0 4.76229,2.12916 4.76229,4.76229zm7.11229,-18.09217c0,-2.62747 2.12916,-4.76229 4.76229,-4.76229c2.62747,0 4.76229,2.12916 4.76229,4.76229c0,2.62747 -2.12916,4.76229 -4.76229,4.76229c-2.63313,0 -4.76795,-2.13482 -4.76229,-4.76229zm-11.16108,-5.0341c2.62747,0 4.76229,2.12916 4.76229,4.76229c0,2.62747 -2.12916,4.76229 -4.76229,4.76229c-2.62747,0 -4.76229,-2.12916 -4.76229,-4.76229c0,-2.63313 2.13482,-4.76795 4.76229,-4.76229zm15.52133,26.99952c-2.62747,0 -4.76229,-2.13482 -4.76229,-4.76229c0,-2.62747 2.12916,-4.76229 4.76229,-4.76229c2.62747,0 4.76229,2.12916 4.76229,4.76229c0,2.62747 -2.13482,4.76229 -4.76229,4.76229zm-25.87265,8.78277c0,2.48024 -2.00458,4.48482 -4.48482,4.48482c-2.48024,0 -4.48482,-2.01024 -4.48482,-4.48482c0,-2.48024 2.01024,-4.48482 4.48482,-4.48482c2.47458,0 4.47916,2.00458 4.48482,4.48482zm-17.86,0.22084c0,2.44627 -1.98193,4.43386 -4.43386,4.43386c-2.44627,0 -4.43386,-1.98193 -4.43386,-4.43386c0,-2.44627 1.98193,-4.43386 4.43386,-4.43386c2.45193,0 4.43386,1.98759 4.43386,4.43386zm-16.04229,-6.31952c-2.04988,0 -3.70904,-1.65916 -3.70904,-3.70904c0,-2.04988 1.65916,-3.70904 3.70904,-3.70904c2.04988,0 3.70904,1.65916 3.70904,3.70904c0,2.04988 -1.65916,3.70904 -3.70904,3.70904zm-7.21988,-16.46133c0,-1.87434 1.51759,-3.39193 3.39193,-3.39193c1.87434,0 3.39193,1.51759 3.39193,3.39193c0,1.87434 -1.51759,3.39193 -3.39193,3.39193c-1.86867,0 -3.38627,-1.51759 -3.39193,-3.39193zm7.75783,-7.9447c-1.58554,0 -2.87096,-1.28542 -2.87096,-2.87096c0,-1.58554 1.28542,-2.87096 2.87096,-2.87096c1.58554,0 2.87096,1.28542 2.87096,2.87096c0,1.58554 -1.28542,2.87096 -2.87096,2.87096zm10.84964,-8.10892c0,1.13819 -0.92301,2.0612 -2.0612,2.0612c-1.13819,0 -2.0612,-0.92301 -2.0612,-2.0612c0,-1.13819 0.92301,-2.0612 2.0612,-2.0612c1.13819,0 2.0612,0.92301 2.0612,2.0612zm1.75542,-0.81542c0.5606,0 1.01928,0.45867 1.01928,1.01928c0,0.5606 -0.45301,1.01928 -1.01928,1.01928c-0.5606,0 -1.01928,-0.45301 -1.01928,-1.01928c0,-0.56627 0.45301,-1.01928 1.01928,-1.01928zm3.04084,-0.62289c0,0.5153 -0.41904,0.93434 -0.93434,0.93434c-0.5153,0 -0.93434,-0.41904 -0.93434,-0.93434c0,-0.5153 0.41904,-0.93434 0.93434,-0.93434c0.5153,0 0.93434,0.41904 0.93434,0.93434zm2.70675,0.07361c0.22651,0 0.40771,0.1812 0.40771,0.40771c0,0.22651 -0.1812,0.40771 -0.40771,0.40771c-0.22651,0 -0.40771,-0.1812 -0.40771,-0.40771c0,-0.22084 0.1812,-0.40205 0.40771,-0.40771zm-1.70446,1.19482c-0.28313,0 -0.50964,-0.22651 -0.50964,-0.50964c0,-0.28313 0.22651,-0.50964 0.50964,-0.50964c0.28313,0 0.50964,0.22651 0.50964,0.50964c0,0.28313 -0.22651,0.50964 -0.50964,0.50964zm10.54386,-4.81892c0,-2.19711 1.78374,-3.98084 3.98084,-3.98084c2.19711,0 3.98084,1.78374 3.98084,3.98084c0,2.19711 -1.78374,3.98084 -3.98084,3.98084c-2.20277,0 -3.98084,-1.78374 -3.98084,-3.98084zm41.32603,-1.20048c0,-2.19711 1.78374,-3.98084 3.98084,-3.98084c2.19711,0 3.98084,1.78374 3.98084,3.98084c0,2.19711 -1.78374,3.98084 -3.98084,3.98084c-2.19711,0 -3.98084,-1.78374 -3.98084,-3.98084zm-55.17687,-2.46892c0,-1.82337 1.47795,-3.30699 3.30699,-3.30699c1.82337,0 3.30699,1.48361 3.30699,3.30699c0,1.82337 -1.47795,3.30699 -3.30699,3.30699c-1.82337,0 -3.30699,-1.48361 -3.30699,-3.30699zm74.02784,2.04988c0,-1.9706 1.59687,-3.56747 3.56747,-3.56747c1.9706,0 3.56747,1.59687 3.56747,3.56747c0,1.9706 -1.59687,3.56747 -3.56747,3.56747c-1.9706,0 -3.56747,-1.59687 -3.56747,-3.56747zm-78.90904,1.99325c0,-1.24012 1.00795,-2.24807 2.24807,-2.24807c1.24012,0 2.24807,1.00795 2.24807,2.24807c0,1.24012 -1.00795,2.24807 -2.24807,2.24807c-1.24012,0 -2.24807,-1.00795 -2.24807,-2.24807zm-5.49843,1.65916c0.66819,0 1.21181,0.54361 1.21181,1.21181c0,0.66819 -0.54361,1.21181 -1.21181,1.21181c-0.66819,0 -1.21181,-0.54361 -1.21181,-1.21181c0,-0.66819 0.54361,-1.21181 1.21181,-1.21181zm0.50964,-2.31602c0,-1.15518 0.93434,-2.08952 2.08952,-2.08952c1.15518,0 2.08952,0.93434 2.08952,2.08952c0,1.15518 -0.93434,2.08952 -2.08952,2.08952c-1.15518,0 -2.08952,-0.93434 -2.08952,-2.08952zm-5.11337,4.28663c0,-0.59458 0.48133,-1.0759 1.0759,-1.0759c0.59458,0 1.0759,0.48133 1.0759,1.0759c0,0.59458 -0.48133,1.0759 -1.0759,1.0759c-0.59458,0 -1.0759,-0.48133 -1.0759,-1.0759zm-2.45193,3.35229c0,-0.4247 0.33976,-0.76446 0.76446,-0.76446c0.4247,0 0.76446,0.33976 0.76446,0.76446c0,0.4247 -0.33976,0.76446 -0.76446,0.76446c-0.4247,0 -0.76446,-0.33976 -0.76446,-0.76446zm-1.24578,2.89361c0,-0.26614 0.21518,-0.48133 0.48133,-0.48133c0.26614,0 0.48133,0.21518 0.48133,0.48133c0,0.26614 -0.21518,0.48133 -0.48133,0.48133c-0.26614,0 -0.48699,-0.22084 -0.48133,-0.48133zm3.35229,-3.79964c0,-0.33976 0.27747,-0.61723 0.61723,-0.61723c0.33976,0 0.61723,0.27747 0.61723,0.61723c0,0.33976 -0.27747,0.61723 -0.61723,0.61723c-0.33976,0 -0.61723,-0.27747 -0.61723,-0.61723zm-2.21976,2.6841c0,-0.19819 0.15855,-0.36241 0.36241,-0.36241c0.19819,0 0.36241,0.15855 0.36241,0.36241c0,0.19819 -0.15855,0.36241 -0.36241,0.36241c-0.19819,0 -0.36241,-0.16422 -0.36241,-0.36241zm1.33639,-3.47687c0,-0.25482 0.20952,-0.46434 0.46434,-0.46434c0.25482,0 0.46434,0.20952 0.46434,0.46434c0,0.25482 -0.20952,0.46434 -0.46434,0.46434c-0.25482,0 -0.46434,-0.20952 -0.46434,-0.46434zm-1.98759,3.10313c0,-0.12458 0.10193,-0.22651 0.22651,-0.22651c0.12458,0 0.22651,0.10193 0.22651,0.22651c0,0.12458 -0.10193,0.22651 -0.22651,0.22651c-0.12458,0 -0.22651,-0.10193 -0.22651,-0.22651z" class="s0" fill-rule="evenodd" id="svg_1"/>
   </g>
  </g>
 </g>
 <defs>
  <linearGradient gradientTransform="matrix(0.5662650465965271,0,0,0.5662650465965271,-109.63603210449219,-55.65066719055176)" y2="168.9" x2="403.3" y1="168.9" x1="195.8" gradientUnits="userSpaceOnUse" id="svg_2">
   <stop stop-color="#ee0979" offset="0"/>
   <stop stop-color="#ff6a00" offset="1"/>
  </linearGradient>
 </defs>
</svg>